<svg xmlns="http://www.w3.org/2000/svg" xmlns:xlink="http://www.w3.org/1999/xlink" xmlns:svgjs="http://svgjs.com/svgjs" width="512" height="512" x="0" y="0" viewBox="0 0 48 48" style="enable-background:new 0 0 512 512" xml:space="preserve" class=""><g><g xmlns="http://www.w3.org/2000/svg" id="Line"><path d="m43 14h-28a3 3 0 0 0 -3 3v16a3 3 0 0 0 3 3h15.7l8.75 5.83a1 1 0 0 0 1.55-.83v-5h2a3 3 0 0 0 3-3v-16a3 3 0 0 0 -3-3zm-22 12a1 1 0 0 1 0-2 1 1 0 0 1 0 2zm4 0a1 1 0 0 1 0-2 1 1 0 0 1 0 2zm4 0a1 1 0 0 1 0-2 1 1 0 0 1 0 2zm4 0a1 1 0 0 1 0-2 1 1 0 0 1 0 2zm4 0a1 1 0 0 1 0-2 1 1 0 0 1 0 2z" fill="#ffffff" data-original="#000000" class=""></path><path d="m10 17a5 5 0 0 1 5-5h21v-4a3 3 0 0 0 -3-3h-28a3 3 0 0 0 -3 3v16a3 3 0 0 0 3 3h2v5a1 1 0 0 0 .53.88 1 1 0 0 0 1-.05l1.45-1z" fill="#ffffff" data-original="#000000" class=""></path></g></g></svg>